# xmcd CD database file
#
# Track frame offsets:
#	150
#	562
#	56186
#	90870
#	108270
#	142780
#	165768
#
# Disc length: 2219 seconds
#
# Revision: 0
# Processed by: cddbd v1.4PL0 Copyright (c) Steve Scherf et al.
# Submitted via: NeoAudio 9.9.9
#
DISCID=4008a907
DTITLE=Gov't Mule - Portsmouth, NH 3/3/02 (2nd Set)
DYEAR=2002
DGENRE=Blues
TTITLE0=Mule-Don't Call Me Nigger
TTITLE1=Mule-3rd Stone Jam
TTITLE2=Mule
TTITLE3=Blind Man In The Dark
TTITLE4=Bad Little Doggie
TTITLE5=Left Coast Groovies
TTITLE6=Drums
EXTD=YEAR: 2002
EXTT0=
EXTT1=
EXTT2=
EXTT3=
EXTT4=
EXTT5=
EXTT6=
PLAYORDER=
